<svg xmlns="http://www.w3.org/2000/svg" version="1.1" xmlns:xlink="http://www.w3.org/1999/xlink" xmlns:svgjs="http://svgjs.dev/svgjs" width="2000" height="656" viewBox="0 0 2000 656"><g transform="matrix(1,0,0,1,-1.2121212121213603,-1.3723192011527772)"><svg viewBox="0 0 396 130" data-background-color="#ffffff" preserveAspectRatio="xMidYMid meet" height="656" width="2000" xmlns="http://www.w3.org/2000/svg" xmlns:xlink="http://www.w3.org/1999/xlink"><g id="tight-bounds" transform="matrix(1,0,0,1,0.24000000000003752,0.2719535002284488)"><svg viewBox="0 0 395.5199999999999 129.45609299954307" height="129.45609299954307" width="395.5199999999999"><g><svg viewBox="0 0 574.9470662830711 188.18365918930957" height="129.45609299954307" width="395.5199999999999"><g transform="matrix(1,0,0,1,179.42706628307107,58.151482155902)"><svg viewBox="0 0 395.52 71.88069487750556" height="71.88069487750556" width="395.52"><g id="textblocktransform"><svg viewBox="0 0 395.52 71.88069487750556" height="71.88069487750556" width="395.52" id="textblock"><g><svg viewBox="0 0 395.52 71.88069487750556" height="71.88069487750556" width="395.52"><g transform="matrix(1,0,0,1,0,0)"><svg width="395.52" viewBox="0.15 -30.57 219.21 39.849999999999994" height="71.88069487750556" data-palette-color="#000000"><path d="M6.2-19.53L9.62-19.53 9.62-20.75 0.15-20.75 0.15-19.53 2.34-19.53 8.3-3.17Q9.28-0.44 10.45 0L10.45 0Q11.04 0.24 11.91 0.24L11.91 0.24 12.55 0.24 19.43-17.82Q20.02-19.34 20.85-19.48L20.85-19.48Q21.09-19.53 21.29-19.53L21.29-19.53Q22.36-19.53 22.46-20.26L22.46-20.26Q22.51-20.51 22.51-20.75L22.51-20.75 14.99-20.75 14.99-19.53 18.65-19.53 12.45-2.88 6.2-19.53ZM41.75 0.49L41.75 0.49Q45.51 0.49 45.9-4.05L45.9-4.05Q45.94-4.35 45.94-4.59L45.94-4.59 44.68-4.64Q44.33-1.07 42.77-1.03L42.77-1.03Q41.5-1.12 41.45-3.56L41.45-3.56 41.45-13.87Q41.45-20.85 34.47-21.24L34.47-21.24Q34.03-21.24 33.59-21.24L33.59-21.24Q28.12-21.24 26.27-18.7L26.27-18.7Q25.68-17.87 25.68-17.04L25.68-17.04Q25.68-15.53 27.1-15.28L27.1-15.28Q27.34-15.23 27.59-15.23L27.59-15.23Q28.71-15.23 29.25-16.65L29.25-16.65Q29.93-18.46 30.17-18.8L30.17-18.8Q31.1-20.02 33.05-20.02L33.05-20.02Q37.64-19.73 37.79-14.99L37.79-14.99 37.79-11.91Q26.32-11.91 24.66-7.13L24.66-7.13Q24.36-6.2 24.36-5.13L24.36-5.13Q24.36-1.42 27.63-0.05L27.63-0.05Q28.95 0.49 30.42 0.49L30.42 0.49Q33.98 0.49 36.42-1.95L36.42-1.95Q37.3-2.88 37.74-3.91L37.74-3.91Q38.33 0.44 41.75 0.49ZM32.03-1.46L32.03-1.46Q29.05-1.46 28.37-4.44L28.37-4.44Q28.22-5.13 28.22-5.96L28.22-5.96Q28.22-9.23 31.98-10.11L31.98-10.11Q33.98-10.55 37.79-10.6L37.79-10.6 37.79-6.69Q37.06-3.32 34.23-1.95L34.23-1.95Q33.1-1.46 32.03-1.46ZM51.22 7.76L51.22 7.76Q50.43 7.76 50.04 6.59L50.04 6.59Q49.51 5.13 49.02 4.79L49.02 4.79Q48.58 4.49 47.99 4.49L47.99 4.49Q46.43 4.49 46.19 5.86L46.19 5.86Q46.14 6.05 46.14 6.2L46.14 6.2Q46.14 8.06 48.29 8.89L48.29 8.89Q49.26 9.28 50.34 9.28L50.34 9.28Q54.19 9.28 57.03 4.54L57.03 4.54Q58.2 2.64 59.27 0L59.27 0 66.5-17.82Q66.99-19.19 67.57-19.38L67.57-19.38Q67.91-19.48 68.35-19.48L68.35-19.48Q69.33-19.48 69.48-20.02L69.48-20.02Q69.58-20.31 69.58-20.75L69.58-20.75 62.15-20.75 62.15-19.48 65.72-19.48 59.47-3.86 52.78-19.48 56.05-19.48 56.05-20.75 46.53-20.75 46.53-19.48 48.92-19.48 57.71 0Q54.98 6.45 52.58 7.47L52.58 7.47Q51.9 7.76 51.22 7.76ZM94.96-1.22L94.96-1.22 92.52-1.22 92.52-20.75 84.86-20.75 84.86-19.53 88.86-19.53 88.86-8.98Q88.86-4.59 85.78-2.54L85.78-2.54Q84.42-1.61 82.95-1.61L82.95-1.61Q78.95-1.61 78.31-5.71L78.31-5.71Q78.22-6.4 78.22-7.18L78.22-7.18 78.22-20.75 70.79-20.75 70.79-19.53 74.55-19.53 74.55-7.91Q74.6 0.44 81.54 0.49L81.54 0.49Q85.2 0.49 87.54-2.49L87.54-2.49Q88.42-3.61 88.96-4.98L88.96-4.98 89.3 0 96.18 0Q96.18-1.07 95.45-1.17L95.45-1.17Q95.26-1.22 94.96-1.22ZM118.01-1.22L118.01-1.22 115.81-1.22 115.81-11.77Q115.95-16.06 118.79-18.16L118.79-18.16Q120.1-19.14 121.42-19.14L121.42-19.14Q123.86-19.14 124.79-16.46L124.79-16.46Q125.18-15.28 125.18-13.82L125.18-13.82 125.18-4.15Q125.18-1.9 124.11-1.46L124.11-1.46Q123.43-1.22 121.76-1.22L121.76-1.22 121.76 0 132.26 0Q132.26-1.07 131.53-1.17L131.53-1.17Q131.34-1.22 131.04-1.22L131.04-1.22 128.84-1.22 128.84-13.33 128.84-13.72Q129.63-17.29 132.31-18.7L132.31-18.7Q133.34-19.19 134.26-19.19L134.26-19.19Q136.76-19.19 137.78-16.6L137.78-16.6Q138.27-15.38 138.27-13.82L138.27-13.82 138.27-4.15Q138.27-1.9 137.19-1.46L137.19-1.46Q136.51-1.22 134.85-1.22L134.85-1.22 134.85 0 145.64 0Q145.64-1.07 144.91-1.17L144.91-1.17Q144.71-1.22 144.42-1.22L144.42-1.22 141.93-1.22 141.93-13.33Q141.93-18.36 138.66-20.36L138.66-20.36Q137.19-21.24 135.49-21.24L135.49-21.24Q131.77-21.24 129.53-17.77L129.53-17.77Q128.94-16.89 128.55-15.92L128.55-15.92Q127.67-19.78 124.69-20.9L124.69-20.9Q123.82-21.24 122.89-21.24L122.89-21.24Q119.37-21.24 117.08-18.26L117.08-18.26Q116.25-17.19 115.76-15.87L115.76-15.87 115.56-20.75 108.48-20.75 108.48-19.53 112.15-19.53 112.15-4.15Q112.15-1.9 110.88-1.46L110.88-1.46Q110.14-1.22 108.48-1.22L108.48-1.22 108.48 0 119.23 0Q119.23-1.03 118.49-1.17L118.49-1.17Q118.25-1.22 118.01-1.22ZM158.33-1.22L158.33-1.22 155.89-1.22 155.89-20.75 148.32-20.75 148.32-19.53 152.23-19.53 152.23-4.15Q152.23-1.9 150.72-1.42L150.72-1.42Q149.99-1.22 148.32-1.22L148.32-1.22 148.32 0 159.56 0Q159.56-1.07 158.82-1.17L158.82-1.17Q158.58-1.22 158.33-1.22ZM156.48-27.88L156.48-27.88Q156.48-29.59 154.97-30.32L154.97-30.32Q154.38-30.57 153.84-30.57L153.84-30.57Q152.13-30.57 151.4-29L151.4-29Q151.16-28.47 151.16-27.88L151.16-27.88Q151.16-26.07 152.77-25.39L152.77-25.39Q153.31-25.2 153.84-25.2L153.84-25.2Q155.55-25.2 156.24-26.76L156.24-26.76Q156.48-27.29 156.48-27.88ZM161.99-20.75L161.99-19.53 165.41-19.53 165.41-5.76Q165.75 0.34 171.03 0.54L171.03 0.54Q175.52 0.54 176.64-4.98L176.64-4.98Q176.64-5.03 176.64-5.08L176.64-5.08 175.32-5.32Q174.1-1.27 171.76-0.93L171.76-0.93Q169.12-1.03 169.07-4.69L169.07-4.69 169.07-19.53 176.64-19.53 176.64-20.75 169.07-20.75 169.07-26.42 165.41-25.39 165.41-20.75 161.99-20.75ZM189.29-1.22L189.29-1.22 185.77-1.22 185.77-10.94Q185.77-15.38 188.51-18.07L188.51-18.07Q189.58-19.09 190.31-19.14L190.31-19.14Q191.14-19.14 191.83-17.92L191.83-17.92Q192.61-16.55 193.29-16.36L193.29-16.36Q193.58-16.26 193.88-16.26L193.88-16.26Q195.34-16.26 195.73-17.68L195.73-17.68Q195.83-17.97 195.83-18.26L195.83-18.26Q195.83-20.46 193.58-20.95L193.58-20.95Q193.1-21.04 192.66-21.04L192.66-21.04Q189.73-21.04 187.43-18.55L187.43-18.55Q186.36-17.38 185.72-15.92L185.72-15.92 185.53-20.75 178.45-20.75 178.45-19.53 182.11-19.53 182.11-4.15Q182.11-1.9 180.84-1.46L180.84-1.46Q180.11-1.22 178.45-1.22L178.45-1.22 178.45 0 190.51 0Q190.51-1.07 189.77-1.17L189.77-1.17Q189.58-1.22 189.29-1.22ZM215.16 0.49L215.16 0.49Q218.92 0.49 219.31-4.05L219.31-4.05Q219.36-4.35 219.36-4.59L219.36-4.59 218.09-4.64Q217.75-1.07 216.19-1.03L216.19-1.03Q214.92-1.12 214.87-3.56L214.87-3.56 214.87-13.87Q214.87-20.85 207.89-21.24L207.89-21.24Q207.45-21.24 207.01-21.24L207.01-21.24Q201.54-21.24 199.68-18.7L199.68-18.7Q199.1-17.87 199.1-17.04L199.1-17.04Q199.1-15.53 200.51-15.28L200.51-15.28Q200.76-15.23 201-15.23L201-15.23Q202.13-15.23 202.66-16.65L202.66-16.65Q203.35-18.46 203.59-18.8L203.59-18.8Q204.52-20.02 206.47-20.02L206.47-20.02Q211.06-19.73 211.21-14.99L211.21-14.99 211.21-11.91Q199.73-11.91 198.07-7.13L198.07-7.13Q197.78-6.2 197.78-5.13L197.78-5.13Q197.78-1.42 201.05-0.05L201.05-0.05Q202.37 0.49 203.83 0.49L203.83 0.49Q207.4 0.49 209.84-1.95L209.84-1.95Q210.72-2.88 211.16-3.91L211.16-3.91Q211.75 0.44 215.16 0.49ZM205.45-1.46L205.45-1.46Q202.47-1.46 201.78-4.44L201.78-4.44Q201.64-5.13 201.64-5.96L201.64-5.96Q201.64-9.23 205.4-10.11L205.4-10.11Q207.4-10.55 211.21-10.6L211.21-10.6 211.21-6.69Q210.48-3.32 207.64-1.95L207.64-1.95Q206.52-1.46 205.45-1.46Z" opacity="1" transform="matrix(1,0,0,1,0,0)" fill="#000000" class="wordmark-text-0" data-fill-palette-color="primary" id="text-0"></path></svg></g></svg></g></svg></g></svg></g><g><svg viewBox="0 0 162.45775935916907 188.18365918930957" height="188.18365918930957" width="162.45775935916907"><g><svg xmlns="http://www.w3.org/2000/svg" xmlns:xlink="http://www.w3.org/1999/xlink" version="1.1" x="0" y="0" viewBox="9.638 3.247 80.72399999999999 93.507" enable-background="new 0 0 100 100" xml:space="preserve" height="188.18365918930957" width="162.45775935916907" class="icon-icon-0" data-fill-palette-color="accent" id="icon-0"><g fill="#000000" data-fill-palette-color="accent"><g fill="#000000" data-fill-palette-color="accent"><polygon points="36.703,11.011 9.638,26.636 9.638,38.757 36.703,23.131 63.767,38.757 63.767,26.636   " fill="#000000" data-fill-palette-color="accent"></polygon></g><g fill="#000000" data-fill-palette-color="accent"><polygon points="63.298,89.092 36.233,73.467 36.233,61.348 63.298,76.973 90.362,61.348 90.362,73.467   " fill="#000000" data-fill-palette-color="accent"></polygon></g><g fill="#000000" data-fill-palette-color="accent"><polygon points="9.638,42.012 36.703,26.386 47.198,32.446 20.134,48.072 20.134,79.324 9.638,73.264   " fill="#000000" data-fill-palette-color="accent"></polygon></g><g fill="#000000" data-fill-palette-color="accent"><polygon points="77.083,18.872 50.018,3.247 39.522,9.307 66.586,24.932 66.586,56.184 77.083,50.124   " fill="#000000" data-fill-palette-color="accent"></polygon></g><g fill="#000000" data-fill-palette-color="accent"><polygon points="23.01,81.127 23.011,49.876 33.507,43.816 33.507,75.068 60.571,90.693 50.075,96.754   " fill="#000000" data-fill-palette-color="accent"></polygon></g><g fill="#000000" data-fill-palette-color="accent"><polygon points="90.362,58.092 90.362,26.84 79.866,20.78 79.866,52.031 52.802,67.658 63.298,73.719   " fill="#000000" data-fill-palette-color="accent"></polygon></g></g></svg></g></svg></g></svg></g><defs></defs></svg><rect width="395.5199999999999" height="129.45609299954307" fill="none" stroke="none" visibility="hidden"></rect></g></svg></g></svg>